<svg width="16" height="17" viewBox="0 0 16 17" fill="none" xmlns="http://www.w3.org/2000/svg">
<path d="M13.9613 13.2836L13.8168 13.1419C13.4068 12.7361 13.048 12.2707 12.75 11.7583C12.4246 11.0512 12.2295 10.279 12.1763 9.48695V7.15417C12.1791 5.91015 11.7729 4.70781 11.0342 3.77304C10.2954 2.83828 9.27486 2.23544 8.16426 2.07778V1.46861C8.16426 1.30142 8.10449 1.14107 7.99808 1.02284C7.89168 0.904615 7.74737 0.838196 7.59689 0.838196C7.44641 0.838196 7.3021 0.904615 7.1957 1.02284C7.08929 1.14107 7.02952 1.30142 7.02952 1.46861V2.08722C5.92887 2.25624 4.92065 2.86273 4.19159 3.79436C3.46253 4.72598 3.06202 5.91961 3.06426 7.15417V9.48695C3.01104 10.279 2.81597 11.0512 2.49051 11.7583C2.19764 12.2694 1.8446 12.7348 1.44076 13.1419L1.29626 13.2836V14.6153H7.62876H13.9613V13.2836Z" fill="white"/>
<path d="M6.51099 15.1111C6.54826 15.4104 6.68175 15.6847 6.88681 15.8832C7.09187 16.0817 7.35465 16.191 7.62661 16.191C7.89858 16.191 8.16135 16.0817 8.36641 15.8832C8.57148 15.6847 8.70497 15.4104 8.74224 15.1111H6.51099Z" fill="white"/>
</svg>
